<svg xmlns="http://www.w3.org/2000/svg" width="102" height="28" viewBox="0 0 102 28"><g><g><path fill="#ee252d" d="M14.22 11.546c-4.274 0-8.653 3.127-8.653 6.967 0 1.457.49 3.02 1.857 3.981.665.533.665 1.313-.106 2.167-.91.995-2.241 1.776-3.573 1.776-1.612 0-3.748-1.527-3.748-4.477 0-1.635 1.05-5.154 5.255-8.353 4.413-3.41 8.197-4.548 12.541-4.832C26.97 1.345 34.395-.003 39.791-.003c5.886 0 11.138 1.918 13.801 2.984 2.383.924 11.631 4.834 18.182 7.748 6.865 2.878 12.785 4.621 16.848 4.621 3.259 0 7.953-1.174 7.953-5.225 0-1.492-.596-2.524-1.402-3.127-.455-.392-.806-.96-.806-1.458 0-1.492 1.332-3.766 3.643-3.766 2.592 0 3.993 2.63 3.993 4.62 0 5.4-5.813 9.063-9.738 10.697-7.216 7.782-14.503 10.912-21.578 10.912-5.185 0-10.158-1.423-16.743-3.84-4.976-1.848-20.597-8.315-26.87-10.342-5.778-1.812-9.072-2.275-12.785-2.275zm20.141-8.6c-4.798 0-9.352 2.453-11.595 6.078 2.733.035 6.867.64 13.697 3.162 6.83 2.347 19.442 7.819 23.855 9.348 4.905 1.635 9.6 2.985 14.257 2.985 5.22 0 9.879-1.741 12.33-6.219-4.869.639-9.456-.142-16.218-2.809-5.185-2.024-19.476-8.67-24.311-10.34-4.063-1.387-7.986-2.204-11.944-2.204z"/></g></g></svg>